# xmcd
#
# Track frame offsets:
#	150
#	20537
#	58592
#	80027
#	111465
#	134212
#	155042
#	180840
#	195655
#	215497
#	250322
#	274512
#	303960
#	317275
#
# Disc length: 4575 seconds
#
# Revision: 8
# Processed by: cddbd v1.5.2PL0 Copyright (c) Steve Scherf et al.
# Submitted via: dBpowerAMP V4.0
#
DISCID=c611dd0e
DTITLE=Buddy Guy - Buddy's Baddest: The Best of Buddy Guy
DYEAR=1999
DGENRE=Blues
TTITLE0=Damn Right, I've Got The Blues
TTITLE1=Five Long Years
TTITLE2=Mustang Sally
TTITLE3=Rememberin' Stevie
TTITLE4=She's A Superstar
TTITLE5=Feels Like Rain
TTITLE6=She's Nineteen Years Old
TTITLE7=I Smell Trouble
TTITLE8=Someone Else Is Steppin' In
TTITLE9=My Time After Awhile (Live)
TTITLE10=Midnight Train (Featuring Jonny Lang)
TTITLE11=Miss Ida B
TTITLE12=I Need Your Love So Bad
TTITLE13=Innocent Man
EXTD=
EXTT0=
EXTT1=
EXTT2=
EXTT3=
EXTT4=
EXTT5=
EXTT6=
EXTT7=
EXTT8=
EXTT9=
EXTT10=
EXTT11=
EXTT12=
EXTT13=
PLAYORDER=
